<mxfile host="app.diagrams.net" modified="2024-07-16T03:46:57.949Z" agent="Mozilla/5.0 (Windows NT 10.0; Win64; x64) AppleWebKit/537.36 (KHTML, like Gecko) Chrome/126.0.0.0 Safari/537.36" version="24.6.5" etag="laYArDXxAkmlYjdqvg-2" type="github">
  <diagram name="Trang-1" id="1Hdnd6pKKp34wVomgN_O">
    <mxGraphModel>
      <root>
        <mxCell id="0" />
        <mxCell id="1" parent="0" />
      </root>
    </mxGraphModel>
  </diagram>
</mxfile>
